<mxfile host="app.diagrams.net" modified="2021-03-21T14:58:18.766Z" agent="5.0 (Macintosh; Intel Mac OS X 10_13_6) AppleWebKit/537.36 (KHTML, like Gecko) Chrome/89.0.4389.90 Safari/537.36" etag="kICHKbsBvneyymmLK8VA" version="14.4.8" type="github">
  <diagram id="FJzqKeumYlPO86cZl64f" name="Page-1">
    <mxGraphModel dx="1026" dy="546" grid="1" gridSize="10" guides="1" tooltips="1" connect="1" arrows="1" fold="1" page="1" pageScale="1" pageWidth="850" pageHeight="1100" math="0" shadow="0">
      <root>
        <mxCell id="0" />
        <mxCell id="1" parent="0" />
        <mxCell id="aRztDWVwKarooP_9aymU-6" style="edgeStyle=orthogonalEdgeStyle;rounded=0;orthogonalLoop=1;jettySize=auto;html=1;exitX=1;exitY=0.5;exitDx=0;exitDy=0;entryX=0;entryY=0.5;entryDx=0;entryDy=0;" edge="1" parent="1" source="aRztDWVwKarooP_9aymU-1" target="aRztDWVwKarooP_9aymU-2">
          <mxGeometry relative="1" as="geometry" />
        </mxCell>
        <mxCell id="aRztDWVwKarooP_9aymU-1" value="Departamento" style="whiteSpace=wrap;html=1;align=center;" vertex="1" parent="1">
          <mxGeometry x="210" y="70" width="100" height="40" as="geometry" />
        </mxCell>
        <mxCell id="aRztDWVwKarooP_9aymU-7" style="edgeStyle=orthogonalEdgeStyle;rounded=0;orthogonalLoop=1;jettySize=auto;html=1;exitX=1;exitY=0.5;exitDx=0;exitDy=0;entryX=0;entryY=0.5;entryDx=0;entryDy=0;" edge="1" parent="1" source="aRztDWVwKarooP_9aymU-2" target="aRztDWVwKarooP_9aymU-5">
          <mxGeometry relative="1" as="geometry" />
        </mxCell>
        <mxCell id="aRztDWVwKarooP_9aymU-2" value="Administrado&amp;nbsp; &lt;br&gt;por" style="shape=rhombus;perimeter=rhombusPerimeter;whiteSpace=wrap;html=1;align=center;" vertex="1" parent="1">
          <mxGeometry x="380" y="60" width="120" height="60" as="geometry" />
        </mxCell>
        <mxCell id="aRztDWVwKarooP_9aymU-5" value="Gestor" style="whiteSpace=wrap;html=1;align=center;" vertex="1" parent="1">
          <mxGeometry x="560" y="70" width="100" height="40" as="geometry" />
        </mxCell>
        <mxCell id="aRztDWVwKarooP_9aymU-8" value="1" style="text;html=1;align=center;verticalAlign=middle;resizable=0;points=[];autosize=1;" vertex="1" parent="1">
          <mxGeometry x="350" y="60" width="20" height="20" as="geometry" />
        </mxCell>
        <mxCell id="aRztDWVwKarooP_9aymU-9" value="1" style="text;html=1;align=center;verticalAlign=middle;resizable=0;points=[];autosize=1;" vertex="1" parent="1">
          <mxGeometry x="500" y="60" width="20" height="20" as="geometry" />
        </mxCell>
        <mxCell id="aRztDWVwKarooP_9aymU-11" style="edgeStyle=orthogonalEdgeStyle;rounded=0;orthogonalLoop=1;jettySize=auto;html=1;exitX=1;exitY=0.5;exitDx=0;exitDy=0;entryX=0;entryY=0.5;entryDx=0;entryDy=0;" edge="1" parent="1" source="aRztDWVwKarooP_9aymU-12" target="aRztDWVwKarooP_9aymU-14">
          <mxGeometry relative="1" as="geometry" />
        </mxCell>
        <mxCell id="aRztDWVwKarooP_9aymU-12" value="Divisão" style="whiteSpace=wrap;html=1;align=center;" vertex="1" parent="1">
          <mxGeometry x="210" y="180" width="100" height="40" as="geometry" />
        </mxCell>
        <mxCell id="aRztDWVwKarooP_9aymU-13" style="edgeStyle=orthogonalEdgeStyle;rounded=0;orthogonalLoop=1;jettySize=auto;html=1;exitX=1;exitY=0.5;exitDx=0;exitDy=0;entryX=0;entryY=0.5;entryDx=0;entryDy=0;" edge="1" parent="1" source="aRztDWVwKarooP_9aymU-14" target="aRztDWVwKarooP_9aymU-15">
          <mxGeometry relative="1" as="geometry" />
        </mxCell>
        <mxCell id="aRztDWVwKarooP_9aymU-14" value="Possui" style="shape=rhombus;perimeter=rhombusPerimeter;whiteSpace=wrap;html=1;align=center;" vertex="1" parent="1">
          <mxGeometry x="380" y="170" width="120" height="60" as="geometry" />
        </mxCell>
        <mxCell id="aRztDWVwKarooP_9aymU-15" value="Departamento" style="whiteSpace=wrap;html=1;align=center;" vertex="1" parent="1">
          <mxGeometry x="560" y="180" width="100" height="40" as="geometry" />
        </mxCell>
        <mxCell id="aRztDWVwKarooP_9aymU-16" value="1" style="text;html=1;align=center;verticalAlign=middle;resizable=0;points=[];autosize=1;" vertex="1" parent="1">
          <mxGeometry x="350" y="170" width="20" height="20" as="geometry" />
        </mxCell>
        <mxCell id="aRztDWVwKarooP_9aymU-17" value="N" style="text;html=1;align=center;verticalAlign=middle;resizable=0;points=[];autosize=1;" vertex="1" parent="1">
          <mxGeometry x="500" y="170" width="20" height="20" as="geometry" />
        </mxCell>
        <mxCell id="aRztDWVwKarooP_9aymU-18" style="edgeStyle=orthogonalEdgeStyle;rounded=0;orthogonalLoop=1;jettySize=auto;html=1;exitX=1;exitY=0.5;exitDx=0;exitDy=0;entryX=0;entryY=0.5;entryDx=0;entryDy=0;" edge="1" parent="1" source="aRztDWVwKarooP_9aymU-19" target="aRztDWVwKarooP_9aymU-21">
          <mxGeometry relative="1" as="geometry" />
        </mxCell>
        <mxCell id="aRztDWVwKarooP_9aymU-19" value="Escritório" style="whiteSpace=wrap;html=1;align=center;" vertex="1" parent="1">
          <mxGeometry x="215" y="280" width="100" height="40" as="geometry" />
        </mxCell>
        <mxCell id="aRztDWVwKarooP_9aymU-20" style="edgeStyle=orthogonalEdgeStyle;rounded=0;orthogonalLoop=1;jettySize=auto;html=1;exitX=1;exitY=0.5;exitDx=0;exitDy=0;entryX=0;entryY=0.5;entryDx=0;entryDy=0;" edge="1" parent="1" source="aRztDWVwKarooP_9aymU-21" target="aRztDWVwKarooP_9aymU-22">
          <mxGeometry relative="1" as="geometry" />
        </mxCell>
        <mxCell id="aRztDWVwKarooP_9aymU-21" value="É ocupado por" style="shape=rhombus;perimeter=rhombusPerimeter;whiteSpace=wrap;html=1;align=center;" vertex="1" parent="1">
          <mxGeometry x="380" y="270" width="120" height="60" as="geometry" />
        </mxCell>
        <mxCell id="aRztDWVwKarooP_9aymU-22" value="Funcionário" style="whiteSpace=wrap;html=1;align=center;" vertex="1" parent="1">
          <mxGeometry x="565" y="280" width="100" height="40" as="geometry" />
        </mxCell>
        <mxCell id="aRztDWVwKarooP_9aymU-23" value="1" style="text;html=1;align=center;verticalAlign=middle;resizable=0;points=[];autosize=1;" vertex="1" parent="1">
          <mxGeometry x="355" y="270" width="20" height="20" as="geometry" />
        </mxCell>
        <mxCell id="aRztDWVwKarooP_9aymU-24" value="N" style="text;html=1;align=center;verticalAlign=middle;resizable=0;points=[];autosize=1;" vertex="1" parent="1">
          <mxGeometry x="505" y="270" width="20" height="20" as="geometry" />
        </mxCell>
        <mxCell id="aRztDWVwKarooP_9aymU-25" style="edgeStyle=orthogonalEdgeStyle;rounded=0;orthogonalLoop=1;jettySize=auto;html=1;exitX=1;exitY=0.5;exitDx=0;exitDy=0;entryX=0;entryY=0.5;entryDx=0;entryDy=0;" edge="1" parent="1" source="aRztDWVwKarooP_9aymU-26" target="aRztDWVwKarooP_9aymU-28">
          <mxGeometry relative="1" as="geometry" />
        </mxCell>
        <mxCell id="aRztDWVwKarooP_9aymU-26" value="Empregado" style="whiteSpace=wrap;html=1;align=center;" vertex="1" parent="1">
          <mxGeometry x="210" y="380" width="100" height="40" as="geometry" />
        </mxCell>
        <mxCell id="aRztDWVwKarooP_9aymU-27" style="edgeStyle=orthogonalEdgeStyle;rounded=0;orthogonalLoop=1;jettySize=auto;html=1;exitX=1;exitY=0.5;exitDx=0;exitDy=0;entryX=0;entryY=0.5;entryDx=0;entryDy=0;" edge="1" parent="1" source="aRztDWVwKarooP_9aymU-28" target="aRztDWVwKarooP_9aymU-29">
          <mxGeometry relative="1" as="geometry" />
        </mxCell>
        <mxCell id="aRztDWVwKarooP_9aymU-28" value="Trabalha em" style="shape=rhombus;perimeter=rhombusPerimeter;whiteSpace=wrap;html=1;align=center;" vertex="1" parent="1">
          <mxGeometry x="380" y="370" width="120" height="60" as="geometry" />
        </mxCell>
        <mxCell id="aRztDWVwKarooP_9aymU-29" value="Projeto" style="whiteSpace=wrap;html=1;align=center;" vertex="1" parent="1">
          <mxGeometry x="560" y="380" width="100" height="40" as="geometry" />
        </mxCell>
        <mxCell id="aRztDWVwKarooP_9aymU-30" value="M" style="text;html=1;align=center;verticalAlign=middle;resizable=0;points=[];autosize=1;" vertex="1" parent="1">
          <mxGeometry x="345" y="370" width="30" height="20" as="geometry" />
        </mxCell>
        <mxCell id="aRztDWVwKarooP_9aymU-31" value="N" style="text;html=1;align=center;verticalAlign=middle;resizable=0;points=[];autosize=1;" vertex="1" parent="1">
          <mxGeometry x="500" y="370" width="20" height="20" as="geometry" />
        </mxCell>
      </root>
    </mxGraphModel>
  </diagram>
</mxfile>
